<svg width="20" height="20" viewBox="0 0 20 20" fill="none" xmlns="http://www.w3.org/2000/svg">
<path fill-rule="evenodd" clip-rule="evenodd" d="M1.97987 4.72204C2.2217 3.31813 3.33759 2.28613 4.74597 2.07183C6.09541 1.86651 7.94665 1.66406 10.0003 1.66406C12.054 1.66406 13.9052 1.86651 15.2547 2.07183C16.6631 2.28613 17.779 3.31813 18.0208 4.72204C18.1893 5.70049 18.3337 6.94344 18.3337 8.33073C18.3337 9.71802 18.1893 10.961 18.0208 11.9394C17.779 13.3433 16.6631 14.3753 15.2547 14.5896C14.0202 14.7775 12.3657 14.9629 10.5204 14.9931L5.42426 18.0045C4.86875 18.3327 4.16699 17.9323 4.16699 17.287V14.4507C3.03913 14.0756 2.18746 13.1446 1.97987 11.9394C1.81134 10.961 1.66699 9.71802 1.66699 8.33073C1.66699 6.94344 1.81134 5.70049 1.97987 4.72204ZM5.00033 6.66406C5.00033 6.20382 5.37342 5.83073 5.83366 5.83073H14.167C14.6272 5.83073 15.0003 6.20382 15.0003 6.66406C15.0003 7.1243 14.6272 7.4974 14.167 7.4974H5.83366C5.37342 7.4974 5.00033 7.1243 5.00033 6.66406ZM5.00033 9.9974C5.00033 9.53716 5.37342 9.16406 5.83366 9.16406H9.16699C9.62723 9.16406 10.0003 9.53716 10.0003 9.9974C10.0003 10.4576 9.62723 10.8307 9.16699 10.8307H5.83366C5.37342 10.8307 5.00033 10.4576 5.00033 9.9974Z" fill="#E8710A"/>
</svg>
