<svg width="86" height="85" viewBox="0 0 86 85" fill="none" xmlns="http://www.w3.org/2000/svg">
<circle cx="43.033" cy="42.2869" r="42.1932" fill="#7347C9"/>
<circle cx="43.0328" cy="42.2877" r="26.8502" fill="#A175F7"/>
<g clip-path="url(#clip0_1267_2589)">
<path d="M34.5874 46.1956H42.4046C45.5714 46.1956 48.1391 43.6317 48.1391 40.4697V26.4703C48.1391 20.8868 40.7376 18.9008 37.9376 23.7355L29.7577 37.8366C27.6058 41.5481 30.2876 46.1956 34.5833 46.1956H34.5874Z" fill="white"/>
<path d="M51.4159 35.8047H43.5988C40.4319 35.8047 37.8643 38.3685 37.8643 41.5306V55.53C37.8643 61.1135 45.2657 63.0994 48.0657 58.2648L56.2456 44.1636C58.3976 40.4522 55.7158 35.8047 51.42 35.8047H51.4159Z" fill="white"/>
</g>
<defs>
<clipPath id="clip0_1267_2589">
<rect width="28" height="40" fill="white" transform="translate(29 21)"/>
</clipPath>
</defs>
</svg>
