<svg width="23" height="23" viewBox="0 0 23 23" fill="none" xmlns="http://www.w3.org/2000/svg">
<path fill-rule="evenodd" clip-rule="evenodd" d="M18.0253 5.69427H4.74356C4.2196 5.69427 3.79486 6.11902 3.79486 6.64297V18.0273C3.79486 18.5513 4.2196 18.976 4.74356 18.976H18.0253C18.5493 18.976 18.974 18.5513 18.974 18.0273V6.64297C18.974 6.11902 18.5493 5.69427 18.0253 5.69427ZM4.74356 3.79688C3.1717 3.79688 1.89746 5.07112 1.89746 6.64297V18.0273C1.89746 19.5992 3.1717 20.8734 4.74356 20.8734H18.0253C19.5972 20.8734 20.8714 19.5992 20.8714 18.0273V6.64297C20.8714 5.07112 19.5972 3.79688 18.0253 3.79688H4.74356Z" fill="#7347C9"/>
<path fill-rule="evenodd" clip-rule="evenodd" d="M9.48718 11.3828C8.96322 11.3828 8.53848 11.8076 8.53848 12.3315C8.53848 12.8555 8.96322 13.2802 9.48718 13.2802H16.1281C16.652 13.2802 17.0768 12.8555 17.0768 12.3315C17.0768 11.8076 16.652 11.3828 16.1281 11.3828H9.48718ZM6.64108 15.1776C6.11713 15.1776 5.69238 15.6024 5.69238 16.1263C5.69238 16.6503 6.11713 17.075 6.64108 17.075H12.3333C12.8572 17.075 13.282 16.6503 13.282 16.1263C13.282 15.6024 12.8572 15.1776 12.3333 15.1776H6.64108Z" fill="#7347C9"/>
<path fill-rule="evenodd" clip-rule="evenodd" d="M6.64108 1.89844C6.11713 1.89844 5.69238 2.32318 5.69238 2.84714V6.64193C5.69238 7.16588 6.11713 7.59063 6.64108 7.59063C7.16503 7.59063 7.58978 7.16588 7.58978 6.64193V2.84714C7.58978 2.32318 7.16503 1.89844 6.64108 1.89844ZM16.1281 1.89844C15.6041 1.89844 15.1794 2.32318 15.1794 2.84714V6.64193C15.1794 7.16588 15.6041 7.59063 16.1281 7.59063C16.652 7.59063 17.0768 7.16588 17.0768 6.64193V2.84714C17.0768 2.32318 16.652 1.89844 16.1281 1.89844Z" fill="#7347C9"/>
</svg>
