<svg width="166" height="166" viewBox="0 0 166 166" fill="none" xmlns="http://www.w3.org/2000/svg">
<circle cx="82.8639" cy="82.8639" r="82.8639" fill="#7347C9"/>
<circle cx="82.8631" cy="82.8631" r="52.5194" fill="#A175F7"/>
<path fill-rule="evenodd" clip-rule="evenodd" d="M82.6953 80.8932C77.673 80.8932 73.1992 81.0762 69.544 81.3085C66.077 81.5289 63.411 84.1742 63.1622 87.6167C62.9852 90.0657 62.862 92.6461 62.862 95.0599C62.862 97.4737 62.9852 100.054 63.1622 102.503C63.411 105.946 66.077 108.591 69.544 108.811C73.1992 109.044 77.673 109.227 82.6953 109.227C87.7176 109.227 92.1914 109.044 95.8466 108.811C99.3136 108.591 101.98 105.946 102.228 102.503C102.405 100.054 102.529 97.4737 102.529 95.0599C102.529 92.6461 102.405 90.0657 102.228 87.6167C101.98 84.1742 99.3136 81.5289 95.8466 81.3085C92.1914 81.0762 87.7176 80.8932 82.6953 80.8932ZM69.1846 75.6532C62.901 76.0526 57.9642 80.9283 57.5103 87.2082C57.3271 89.7428 57.1953 92.4673 57.1953 95.0599C57.1953 97.6525 57.3271 100.377 57.5103 102.912C57.9642 109.192 62.901 114.067 69.1846 114.467C72.9424 114.705 77.5371 114.893 82.6953 114.893C87.8535 114.893 92.4483 114.705 96.206 114.467C102.49 114.067 107.426 109.192 107.88 102.912C108.064 100.377 108.195 97.6525 108.195 95.0599C108.195 92.4673 108.064 89.7428 107.88 87.2082C107.426 80.9283 102.49 76.0526 96.206 75.6532C92.4483 75.4144 87.8535 75.2266 82.6953 75.2266C77.5371 75.2266 72.9424 75.4144 69.1846 75.6532Z" fill="white"/>
<path fill-rule="evenodd" clip-rule="evenodd" d="M85.5293 97.1348C87.2231 96.155 88.3626 94.3237 88.3626 92.2262C88.3626 89.0966 85.8256 86.5596 82.696 86.5596C79.5664 86.5596 77.0293 89.0966 77.0293 92.2262C77.0293 94.3237 78.1689 96.155 79.8626 97.1348V100.726C79.8626 102.291 81.1312 103.56 82.696 103.56C84.2608 103.56 85.5293 102.291 85.5293 100.726V97.1348Z" fill="white"/>
<path fill-rule="evenodd" clip-rule="evenodd" d="M68.5293 66.7262C68.5293 58.9022 74.8719 52.5596 82.696 52.5596C90.52 52.5596 96.8626 58.9022 96.8626 66.7262V78.0596C96.8626 79.6244 95.5941 80.8929 94.0293 80.8929C92.4645 80.8929 91.196 79.6244 91.196 78.0596V66.7262C91.196 62.0318 87.3904 58.2262 82.696 58.2262C78.0015 58.2262 74.196 62.0318 74.196 66.7262V78.0596C74.196 79.6244 72.9274 80.8929 71.3626 80.8929C69.7978 80.8929 68.5293 79.6244 68.5293 78.0596V66.7262Z" fill="white"/>
</svg>
