<svg width="16" height="16" viewBox="0 0 16 16" fill="none" xmlns="http://www.w3.org/2000/svg">
<path fill-rule="evenodd" clip-rule="evenodd" d="M13.3461 8.29916C13.3461 11.1237 11.0563 13.4135 8.23178 13.4135C5.40721 13.4135 3.11745 11.1237 3.11745 8.29916C3.11745 5.47459 5.40721 3.18483 8.23178 3.18483C11.0563 3.18483 13.3461 5.47459 13.3461 8.29916ZM14.6247 8.29916C14.6247 11.8299 11.7625 14.6921 8.23178 14.6921C4.70107 14.6921 1.83887 11.8299 1.83887 8.29916C1.83887 4.76845 4.70107 1.90625 8.23178 1.90625C11.7625 1.90625 14.6247 4.76845 14.6247 8.29916ZM8.23178 4.46341C8.58485 4.46341 8.87107 4.74963 8.87107 5.1027V7.65987H11.4282C11.7813 7.65987 12.0675 7.94609 12.0675 8.29916C12.0675 8.65223 11.7813 8.93845 11.4282 8.93845H8.87107V11.4956C8.87107 11.8487 8.58485 12.1349 8.23178 12.1349C7.87871 12.1349 7.59249 11.8487 7.59249 11.4956V8.93845H5.03532C4.68225 8.93845 4.39603 8.65223 4.39603 8.29916C4.39603 7.94609 4.68225 7.65987 5.03532 7.65987H7.59249V5.1027C7.59249 4.74963 7.87871 4.46341 8.23178 4.46341Z" fill="white"/>
</svg>
