<svg width="15" height="15" viewBox="0 0 15 15" fill="none" xmlns="http://www.w3.org/2000/svg">
<g clip-path="url(#clip0_763_3847)">
<path d="M3.25944 2.84115C3.25944 2.51898 2.99827 2.25781 2.67611 2.25781C2.35394 2.25781 2.09277 2.51898 2.09277 2.84115V4.00781C2.09277 4.32998 2.35394 4.59115 2.67611 4.59115C2.99827 4.59115 3.25944 4.32998 3.25944 4.00781V2.84115Z" fill="white"/>
<path d="M3.25944 7.50781C3.25944 7.18565 2.99827 6.92448 2.67611 6.92448C2.35394 6.92448 2.09277 7.18565 2.09277 7.50781V11.0078C2.09277 11.33 2.35394 11.5911 2.67611 11.5911C2.99827 11.5911 3.25944 11.33 3.25944 11.0078V7.50781Z" fill="white"/>
<path fill-rule="evenodd" clip-rule="evenodd" d="M3.25911 6.33854V5.17188C3.25911 4.84971 2.99795 4.58854 2.67578 4.58854C2.35362 4.58854 2.09245 4.84971 2.09245 5.17188V6.33854C2.09245 6.66071 2.35362 6.92188 2.67578 6.92188C2.99795 6.92188 3.25911 6.66071 3.25911 6.33854ZM2.67578 3.42188C1.70928 3.42188 0.925781 4.20538 0.925781 5.17188V6.33854C0.925781 7.30504 1.70928 8.08854 2.67578 8.08854C3.64228 8.08854 4.42578 7.30504 4.42578 6.33854V5.17188C4.42578 4.20538 3.64228 3.42188 2.67578 3.42188Z" fill="white"/>
<path d="M7.92643 5.17708C7.92643 4.85492 7.66527 4.59375 7.3431 4.59375C7.02093 4.59375 6.75977 4.85492 6.75977 5.17708V6.92708C6.75977 7.24925 7.02093 7.51042 7.3431 7.51042C7.66527 7.51042 7.92643 7.24925 7.92643 6.92708V5.17708Z" fill="white"/>
<path d="M7.92643 11.0104C7.92643 10.6883 7.66527 10.4271 7.3431 10.4271C7.02093 10.4271 6.75977 10.6883 6.75977 11.0104V12.1771C6.75977 12.4992 7.02093 12.7604 7.3431 12.7604C7.66527 12.7604 7.92643 12.4992 7.92643 12.1771V11.0104Z" fill="white"/>
<path fill-rule="evenodd" clip-rule="evenodd" d="M7.92611 9.84375V8.09375C7.92611 7.77158 7.66494 7.51042 7.34277 7.51042C7.02061 7.51042 6.75944 7.77158 6.75944 8.09375V9.84375C6.75944 10.1659 7.02061 10.4271 7.34277 10.4271C7.66494 10.4271 7.92611 10.1659 7.92611 9.84375ZM7.34277 6.34375C6.37628 6.34375 5.59277 7.12725 5.59277 8.09375V9.84375C5.59277 10.8102 6.37628 11.5938 7.34277 11.5938C8.30927 11.5938 9.09277 10.8102 9.09277 9.84375V8.09375C9.09277 7.12725 8.30927 6.34375 7.34277 6.34375Z" fill="white"/>
<path d="M12.5924 2.84115C12.5924 2.51898 12.3313 2.25781 12.0091 2.25781C11.6869 2.25781 11.4258 2.51898 11.4258 2.84115V4.00781C11.4258 4.32998 11.6869 4.59115 12.0091 4.59115C12.3313 4.59115 12.5924 4.32998 12.5924 4.00781V2.84115Z" fill="white"/>
<path d="M12.5924 9.25781C12.5924 8.93565 12.3313 8.67448 12.0091 8.67448C11.6869 8.67448 11.4258 8.93565 11.4258 9.25781V11.0078C11.4258 11.33 11.6869 11.5911 12.0091 11.5911C12.3313 11.5911 12.5924 11.33 12.5924 11.0078V9.25781Z" fill="white"/>
<path fill-rule="evenodd" clip-rule="evenodd" d="M12.5931 8.08854V5.17188C12.5931 4.84971 12.3319 4.58854 12.0098 4.58854C11.6876 4.58854 11.4264 4.84971 11.4264 5.17188V8.08854C11.4264 8.41071 11.6876 8.67188 12.0098 8.67188C12.3319 8.67188 12.5931 8.41071 12.5931 8.08854ZM12.0098 3.42188C11.0433 3.42188 10.2598 4.20538 10.2598 5.17188V8.08854C10.2598 9.05504 11.0433 9.83854 12.0098 9.83854C12.9763 9.83854 13.7598 9.05504 13.7598 8.08854V5.17188C13.7598 4.20538 12.9763 3.42188 12.0098 3.42188Z" fill="white"/>
</g>
<defs>
<clipPath id="clip0_763_3847">
<rect width="14" height="14" fill="white" transform="translate(0.342773 0.507812)"/>
</clipPath>
</defs>
</svg>
