<svg width="56" height="55" viewBox="0 0 56 55" fill="none" xmlns="http://www.w3.org/2000/svg">
<path fill-rule="evenodd" clip-rule="evenodd" d="M32.5833 4.58073C32.5833 3.31508 31.5573 2.28906 30.2917 2.28906H14.25C10.453 2.28906 7.375 5.3671 7.375 9.16406V45.8307C7.375 49.6277 10.453 52.7057 14.25 52.7057H41.75C45.547 52.7057 48.625 49.6277 48.625 45.8307V20.6224C48.625 19.3567 47.599 18.3307 46.3333 18.3307H39.4583C35.6614 18.3307 32.5833 15.2527 32.5833 11.4557V4.58073ZM29.0655 21.0245C28.6835 20.0587 27.3166 20.0587 26.9345 21.0245L25.0746 25.7264C24.9145 26.1311 24.539 26.4101 24.1053 26.4467L19.1785 26.862C18.1787 26.9463 17.7624 28.1837 18.5079 28.8552L22.3445 32.3108C22.6528 32.5885 22.7869 33.0111 22.6951 33.4157L21.5379 38.5167C21.311 39.5169 22.4116 40.2886 23.2745 39.7344L27.3808 37.0972C27.7581 36.8549 28.242 36.8549 28.6192 37.0972L32.7255 39.7344C33.5884 40.2886 34.689 39.5169 34.4621 38.5167L33.3049 33.4157C33.2131 33.0111 33.3472 32.5885 33.6555 32.3108L37.4922 28.8552C38.2377 28.1837 37.8213 26.9463 36.8216 26.862L31.8947 26.4467C31.461 26.4101 31.0855 26.1311 30.9254 25.7264L29.0655 21.0245Z" fill="#53358D"/>
<path d="M39.4069 2.69635C38.2397 2.2069 37.167 3.31556 37.167 4.58121V11.4562C37.167 12.7219 38.193 13.7479 39.4587 13.7479H46.3337C47.5993 13.7479 48.708 12.6751 48.2185 11.5079C48.0066 11.0026 47.7022 10.533 47.2829 10.1138L40.8011 3.63197C40.3818 3.21272 39.9123 2.90825 39.4069 2.69635Z" fill="#53358D"/>
</svg>
