<svg width="40" height="40" viewBox="0 0 40 40" fill="none" xmlns="http://www.w3.org/2000/svg">
<circle cx="20" cy="20" r="20" fill="#E8710A"/>
<rect width="20" height="20" transform="translate(10 10)" fill="#E8710A"/>
<path fill-rule="evenodd" clip-rule="evenodd" d="M21.6667 11.6615C21.6667 11.2012 21.2936 10.8281 20.8333 10.8281H15C13.6193 10.8281 12.5 11.9474 12.5 13.3281V26.6615C12.5 28.0422 13.6193 29.1615 15 29.1615H25C26.3807 29.1615 27.5 28.0422 27.5 26.6615V17.4948C27.5 17.0346 27.1269 16.6615 26.6667 16.6615H24.1667C22.786 16.6615 21.6667 15.5422 21.6667 14.1615V11.6615ZM23.0893 20.584C23.4147 20.2586 23.4147 19.731 23.0893 19.4055C22.7638 19.0801 22.2362 19.0801 21.9107 19.4055L19.1667 22.1496L18.0893 21.0722C17.7638 20.7468 17.2362 20.7468 16.9107 21.0722C16.5853 21.3976 16.5853 21.9253 16.9107 22.2507L18.5774 23.9174C18.9028 24.2428 19.4305 24.2428 19.7559 23.9174L23.0893 20.584Z" fill="white"/>
<path d="M24.1475 10.9805C23.7231 10.8025 23.333 11.2057 23.333 11.6659V14.1659C23.333 14.6261 23.7061 14.9992 24.1663 14.9992H26.6663C27.1266 14.9992 27.5297 14.6091 27.3517 14.1847C27.2747 14.001 27.164 13.8302 27.0115 13.6777L24.6545 11.3207C24.502 11.1683 24.3313 11.0575 24.1475 10.9805Z" fill="white"/>
</svg>
