<svg width="90" height="21" viewBox="0 0 90 21" fill="none" xmlns="http://www.w3.org/2000/svg">
<path d="M72.9919 11.7952C72.4921 10.3792 71.5055 9.46305 70.0511 8.91846C70.2689 8.76469 70.4291 8.64936 70.5893 8.53404C72.0629 7.4833 72.6523 6.03533 72.4793 4.26061C72.2999 2.51151 71.3901 1.24935 69.7371 0.634281C68.8978 0.320342 67.9752 0.0768758 67.0847 0.051248C64.4002 -0.0320421 61.7093 0.0128213 59.0247 0.00641436H56.667V19.6757C56.8528 19.6885 57.013 19.7141 57.1731 19.7141C60.1011 19.7141 63.0291 19.7334 65.957 19.7013C66.8284 19.6949 67.7061 19.6116 68.5647 19.4578C72.1974 18.8043 74.2092 15.2805 72.9726 11.7952H72.9919ZM61.6772 3.93385C63.0803 3.93385 64.4386 3.8698 65.7905 3.95309C67.0398 4.03638 67.5908 4.77957 67.5332 6.02893C67.4819 7.03481 66.7002 7.74597 65.5726 7.75879C64.2912 7.77801 63.0035 7.75879 61.6772 7.75879V3.93385ZM68.3148 13.6596C68.2507 14.7359 67.5396 15.5176 66.3607 15.5753C64.8166 15.6521 63.2725 15.5945 61.658 15.5945V11.1224C61.7925 11.1032 61.9143 11.0712 62.036 11.0712C63.5609 11.0968 65.0985 11.0327 66.6041 11.1993C67.8599 11.3403 68.3981 12.2693 68.3084 13.6596H68.3148Z" fill="#543582"/>
<path d="M20.0651 7.49286C20.3149 7.22377 20.552 6.94827 20.8147 6.692C22.7176 4.84039 26.2734 4.78273 27.984 6.57026C28.6824 7.30065 28.9899 8.21684 29.1181 9.18428C29.2014 9.81216 29.2462 10.4465 29.2526 11.0743C29.2654 13.7396 29.2526 16.4049 29.2654 19.0766C29.2654 19.5379 29.1437 19.6981 28.6696 19.6853C27.5868 19.6532 26.504 19.6596 25.4277 19.6853C24.992 19.6981 24.8511 19.5571 24.8511 19.1086C24.8703 16.6868 24.8767 14.2586 24.8511 11.8368C24.8511 11.2858 24.7614 10.722 24.614 10.1902C24.4282 9.52386 23.9221 9.16506 23.2429 9.03692C20.9941 8.61406 20.1099 10.3055 20.0907 11.7727C20.0587 14.1753 20.0587 16.5843 20.0907 18.9869C20.0971 19.5763 19.9113 19.7109 19.3603 19.6916C18.316 19.6532 17.2717 19.666 16.2273 19.6916C15.8237 19.6981 15.6699 19.5891 15.6699 19.1599C15.6827 14.8544 15.6827 10.5425 15.6699 6.23709C15.6699 5.85268 15.7853 5.69892 16.1761 5.70532C17.2396 5.71814 18.3032 5.71814 19.3667 5.70532C19.7832 5.70532 19.9305 5.88471 19.9113 6.28194C19.8921 6.67917 19.9113 7.08281 19.9113 7.48004C19.9626 7.48644 20.0138 7.49926 20.0651 7.50567V7.49286Z" fill="#FF7805"/>
<path d="M4.91147 13.7415C6.40428 13.7608 7.8971 13.7479 9.38992 13.7479H13.8684C14.131 13.7479 14.4065 13.7736 14.4065 13.3763C14.4065 11.2364 14.0093 9.21184 12.5806 7.53322C10.3061 4.86794 5.82125 4.4707 2.93813 6.6875C0.362545 8.66724 -0.387064 11.3453 0.176746 14.4463C0.644452 17.0155 2.08601 18.8158 4.59752 19.6551C6.26333 20.2125 7.96117 20.2254 9.66541 19.8089C11.69 19.3092 13.1764 18.1559 13.9516 16.1762C14.1439 15.6956 14.067 15.5611 13.5544 15.5547C12.587 15.5419 11.6131 15.5675 10.6457 15.5483C10.2805 15.5419 10.0434 15.6572 9.81277 15.9711C9.08878 16.9706 7.7113 17.3358 6.38506 16.9258C5.34714 16.6054 4.48861 15.4458 4.40532 14.3053C4.3797 13.9081 4.4758 13.7351 4.91147 13.7415ZM4.44376 10.7559C4.7577 9.43608 5.64186 8.5391 6.96168 8.32767C8.68515 8.04577 9.8448 9.50655 10.005 10.9481C10.0178 11.0442 9.72948 11.2685 9.57571 11.2749C8.77485 11.3133 7.97398 11.2941 7.17311 11.2941C6.41069 11.2941 5.64827 11.2941 4.88584 11.3005C4.49502 11.3005 4.35406 11.1595 4.45017 10.7623L4.44376 10.7559Z" fill="#FF7805"/>
<path d="M40.9176 15.5608C40.7894 15.5608 40.6229 15.6569 40.5524 15.7658C39.7067 17.0408 38.4894 17.2779 37.1183 16.9319C35.8497 16.6115 35.2603 15.6633 35.036 14.4332C34.9207 13.7861 34.9527 13.7348 35.6319 13.7348H45.0949C44.954 12.6264 44.9347 11.5885 44.6913 10.6082C43.6469 6.42452 40.4883 4.82919 36.7659 5.35455C33.0883 5.87352 30.7818 8.79508 30.6345 12.1459C30.5319 14.4268 30.9997 16.5218 32.7167 18.1748C34.0109 19.4178 35.5998 19.956 37.3746 20.0521C39.3671 20.1482 41.2379 19.8342 42.8397 18.5464C43.7815 17.7968 44.3901 16.8294 44.6913 15.6697C44.6144 15.6185 44.5823 15.58 44.5503 15.58C43.3394 15.5672 42.1285 15.5544 40.9176 15.5608ZM37.8166 8.26331C39.1236 8.17361 40.3281 9.28201 40.578 10.7684C40.6293 11.0631 40.6036 11.2682 40.2641 11.2682C38.5855 11.2682 36.9069 11.2618 35.2282 11.2489C35.1642 11.2489 35.0937 11.1977 35.036 11.1721C35.1001 9.57673 36.2662 8.36581 37.8102 8.25689L37.8166 8.26331Z" fill="#FF7805"/>
<path d="M82.6526 8.39343H80.4102V5.41421H82.6334V1.07031H87.1759V3.99187C87.1759 4.93156 87.6564 5.40141 88.6174 5.40141C89.0467 5.40141 89.4696 5.40141 89.9501 5.40141V8.39343C89.2069 8.39343 88.4701 8.41905 87.7333 8.38702C87.2784 8.3678 87.1695 8.52799 87.1695 8.96366C87.1887 10.8665 87.1759 12.7694 87.1759 14.6722C87.1759 15.9536 87.6179 16.3893 88.8929 16.3765C89.2261 16.3765 89.5593 16.3444 89.9437 16.3252V19.6953C88.3548 19.8939 86.7786 20.0092 85.2154 19.644C83.5944 19.266 82.7871 18.1448 82.7359 16.2419C82.6782 13.8778 82.6782 11.5072 82.6526 9.13664C82.6526 8.9188 82.6526 8.69455 82.6526 8.38702V8.39343Z" fill="#543582"/>
<path d="M50.8806 7.99471C51.028 7.72562 51.1497 7.43089 51.3291 7.18102C52.3991 5.6818 53.8663 5.29097 55.5449 5.45755C55.6794 5.47037 55.8909 5.70743 55.8973 5.84197C55.9229 7.05288 55.9165 8.25738 55.9165 9.53876C55.6282 9.50032 55.3975 9.48112 55.1669 9.43627C52.7066 8.92372 50.855 10.3845 50.823 12.896C50.7973 14.927 50.8037 16.9644 50.823 18.9954C50.8294 19.54 50.65 19.7066 50.1182 19.6874C49.0931 19.6553 48.068 19.6681 47.0429 19.6874C46.6456 19.6938 46.4727 19.5848 46.4727 19.1556C46.4855 14.8309 46.4791 10.4998 46.4727 6.17512C46.4727 5.874 46.5111 5.6818 46.8955 5.68821C47.9783 5.71384 49.0611 5.70742 50.1438 5.6946C50.5603 5.6946 50.7012 5.8676 50.6884 6.26483C50.6692 6.82864 50.6884 7.39885 50.6884 7.96266C50.7525 7.97548 50.8166 7.9819 50.887 7.99471H50.8806Z" fill="#FF7805"/>
<path d="M79.4118 19.6787H74.959V5.42969H79.4118V19.6787Z" fill="#543582"/>
<path d="M79.405 3.54647C77.9891 3.54647 76.6116 3.55289 75.2405 3.53367C75.1316 3.53367 74.9394 3.34786 74.933 3.25176C74.9074 2.19462 74.9202 1.14387 74.9202 0.0546875H79.405V3.55289V3.54647Z" fill="#543582"/>
</svg>
