<svg width="40" height="40" viewBox="0 0 40 40" fill="none" xmlns="http://www.w3.org/2000/svg">
<path d="M18.4698 5.20944C19.0488 3.86769 20.9513 3.86769 21.5303 5.20944L25.1637 13.6292C25.4089 14.1974 25.9486 14.5829 26.5656 14.6306L35.8833 15.3506C37.3783 15.4661 37.9723 17.3429 36.816 18.2975L29.8087 24.083C29.3145 24.4911 29.098 25.1464 29.252 25.7686L31.4085 34.4825C31.7632 35.9155 30.2173 37.0681 28.9452 36.3192L20.8456 31.5509C20.3238 31.2437 19.6763 31.2437 19.1545 31.5509L11.055 36.3192C9.78279 37.0681 8.23691 35.9155 8.59156 34.4825L10.7481 25.7686C10.9021 25.1464 10.6856 24.4911 10.1914 24.083L3.18408 18.2975C2.02781 17.3429 2.62182 15.4661 4.1168 15.3506L13.4345 14.6306C14.0515 14.5829 14.5912 14.1974 14.8364 13.6292L18.4698 5.20944Z" fill="#E8710A"/>
</svg>
