<svg width="30" height="30" viewBox="0 0 30 30" fill="none" xmlns="http://www.w3.org/2000/svg">
<path fill-rule="evenodd" clip-rule="evenodd" d="M0.553489 6.81276C0.988687 3.51756 3.51757 0.988686 6.81276 0.553489C9.07812 0.254301 11.9119 0 15 0C18.0881 0 20.9219 0.254301 23.1872 0.553489C26.4824 0.988687 29.0113 3.51757 29.4465 6.81276C29.7457 9.07812 30 11.9119 30 15C30 18.0881 29.7457 20.9219 29.4465 23.1872C29.0113 26.4824 26.4824 29.0113 23.1872 29.4465C20.9219 29.7457 18.0881 30 15 30C11.9119 30 9.07812 29.7457 6.81276 29.4465C3.51756 29.0113 0.988686 26.4824 0.553489 23.1872C0.254301 20.9219 0 18.0881 0 15C0 11.9119 0.254301 9.07812 0.553489 6.81276ZM11.6893 10.8107C11.1036 10.2249 11.1036 9.27513 11.6893 8.68934C12.2751 8.10355 13.2249 8.10355 13.8107 8.68934L19.0607 13.9393C19.6464 14.5251 19.6464 15.4749 19.0607 16.0607L13.8107 21.3107C13.2249 21.8964 12.2751 21.8964 11.6893 21.3107C11.1036 20.7249 11.1036 19.7751 11.6893 19.1893L15.8787 15L11.6893 10.8107Z" fill="#FF983F"/>
</svg>
