<svg width="22" height="22" viewBox="0 0 22 22" fill="none" xmlns="http://www.w3.org/2000/svg">
<path fill-rule="evenodd" clip-rule="evenodd" d="M2.75098 4.58999C2.75098 2.56415 4.39325 0.921875 6.4191 0.921875H14.07C15.0429 0.921875 15.9759 1.30834 16.6638 1.99624L18.1831 3.51563C18.871 4.20353 19.2575 5.13653 19.2575 6.10938V17.4284C19.2575 19.4543 17.6152 21.0965 15.5894 21.0965H6.4191C4.39325 21.0965 2.75098 19.4543 2.75098 17.4284V4.58999ZM17.4235 7.34108V17.4284C17.4235 18.4413 16.6023 19.2625 15.5894 19.2625H6.4191C5.40617 19.2625 4.58504 18.4413 4.58504 17.4284V4.58999C4.58504 3.57707 5.40617 2.75593 6.4191 2.75593H12.8383V4.58999C12.8383 6.10938 14.07 7.34108 15.5894 7.34108H17.4235ZM17.3217 5.50702C17.2317 5.24805 17.0838 5.01006 16.8863 4.8125L15.3669 3.29312C15.1693 3.09556 14.9313 2.94772 14.6724 2.85767V4.58999C14.6724 5.09646 15.0829 5.50702 15.5894 5.50702H17.3217Z" fill="white"/>
<path d="M8.25297 11C7.74651 11 7.33594 11.4106 7.33594 11.917C7.33594 12.4235 7.74651 12.8341 8.25297 12.8341H13.7551C14.2616 12.8341 14.6722 12.4235 14.6722 11.917C14.6722 11.4106 14.2616 11 13.7551 11H8.25297Z" fill="white"/>
<path d="M8.25297 14.6681C7.74651 14.6681 7.33594 15.0787 7.33594 15.5851C7.33594 16.0916 7.74651 16.5022 8.25297 16.5022H11.0041C11.5105 16.5022 11.9211 16.0916 11.9211 15.5851C11.9211 15.0787 11.5105 14.6681 11.0041 14.6681H8.25297Z" fill="white"/>
</svg>
