<svg width="24" height="25" viewBox="0 0 24 25" fill="none" xmlns="http://www.w3.org/2000/svg">
<path d="M20.0001 19.3567V9.52279L21.4857 10.4141C21.9592 10.6983 22.5735 10.5447 22.8576 10.0711C23.1418 9.59753 22.9882 8.98327 22.5146 8.69912L17.4927 5.68596L13.6515 3.37168L13.6514 3.37161C13.3722 3.20339 13.1579 3.07428 12.9763 2.97721C12.9339 2.9535 12.8909 2.93144 12.8473 2.91105C12.6962 2.83729 12.5651 2.78819 12.4305 2.75853C12.147 2.69605 11.8533 2.69605 11.5697 2.75853C11.4348 2.78827 11.3034 2.83755 11.1518 2.91163C11.109 2.93169 11.0667 2.95335 11.0251 2.9766C10.8432 3.07375 10.6286 3.20304 10.3488 3.37162L10.3488 3.37165L6.50181 5.68943L1.48566 8.69912C1.01208 8.98327 0.85851 9.59753 1.14266 10.0711C1.42681 10.5447 2.04107 10.6983 2.51465 10.4141L4.00012 9.52282V19.3567C4.00012 20.4768 4.00012 21.0368 4.21811 21.4647C4.40986 21.841 4.71582 22.147 5.09214 22.3387C5.51996 22.5567 6.08002 22.5567 7.20012 22.5567L9.00012 22.5566V16.5566C9.00012 14.8998 10.3433 13.5566 12.0001 13.5566C13.657 13.5566 15.0001 14.8998 15.0001 16.5566V22.5566L16.8001 22.5567C17.9202 22.5567 18.4803 22.5567 18.9081 22.3387C19.2844 22.147 19.5904 21.841 19.7821 21.4647C20.0001 21.0368 20.0001 20.4768 20.0001 19.3567Z" fill="#53358D"/>
</svg>
