<svg width="45" height="45" viewBox="0 0 45 45" fill="none" xmlns="http://www.w3.org/2000/svg">
<rect width="45" height="45" rx="12" fill="#FFE3CA"/>
<g clip-path="url(#clip0_389_33)">
<path fill-rule="evenodd" clip-rule="evenodd" d="M22.4993 34.9997C27.1017 34.9997 30.8327 31.2687 30.8327 26.6663C30.8327 22.064 27.1017 18.333 22.4993 18.333C17.897 18.333 14.166 22.064 14.166 26.6663C14.166 31.2687 17.897 34.9997 22.4993 34.9997ZM22.4993 31.8747C25.3758 31.8747 27.7077 29.5428 27.7077 26.6663C27.7077 23.7899 25.3758 21.458 22.4993 21.458C19.6229 21.458 17.291 23.7899 17.291 26.6663C17.291 29.5428 19.6229 31.8747 22.4993 31.8747Z" fill="#FF983F"/>
<path d="M25.625 26.667C25.625 28.3929 24.2259 29.792 22.5 29.792C20.7741 29.792 19.375 28.3929 19.375 26.667C19.375 24.9411 20.7741 23.542 22.5 23.542C24.2259 23.542 25.625 24.9411 25.625 26.667Z" fill="#FF983F"/>
<path d="M27.2754 17.4063C27.5373 17.5415 27.8638 17.4508 28.0035 17.1913L31.049 11.5355C31.4226 10.8415 30.92 10 30.1318 10H26.2441C25.8629 10 25.5122 10.2082 25.3297 10.5429L23.8234 13.3044C23.7386 13.4599 23.7386 13.6478 23.8234 13.8032L25.2731 16.4611C25.3398 16.5834 25.453 16.6733 25.5861 16.7145C26.1731 16.8963 26.7379 17.1286 27.2754 17.4063Z" fill="#FF983F"/>
<path d="M17.7258 17.4065C17.4638 17.5415 17.1373 17.4508 16.9975 17.1913L13.9521 11.5355C13.5784 10.8415 14.0811 10 14.8693 10H18.7569C19.1381 10 19.4889 10.2082 19.6714 10.5429L22.3532 15.4594C22.5455 15.8119 22.2828 16.2448 21.882 16.2688C20.4363 16.3556 19.0143 16.7424 17.7258 17.4065Z" fill="#FF983F"/>
</g>
<defs>
<clipPath id="clip0_389_33">
<rect width="25" height="25" fill="white" transform="translate(10 10)"/>
</clipPath>
</defs>
</svg>
