<svg width="16" height="16" viewBox="0 0 16 16" fill="none" xmlns="http://www.w3.org/2000/svg">
<path fill-rule="evenodd" clip-rule="evenodd" d="M6 11.3359C7.10457 11.3359 8 12.2314 8 13.3359C8 14.4405 7.10457 15.3359 6 15.3359L5.33333 15.3359C4.96514 15.3359 4.66667 15.0375 4.66667 14.6693C4.66667 14.3011 4.96514 14.0026 5.33333 14.0026L6 14.0026C6.36819 14.0026 6.66667 13.7041 6.66667 13.3359C6.66667 12.9677 6.36819 12.6693 6 12.6693L5.33333 12.6693C4.96514 12.6693 4.66667 12.3708 4.66667 12.0026C4.66667 11.6344 4.96514 11.3359 5.33333 11.3359L6 11.3359Z" fill="#E8710A"/>
<path fill-rule="evenodd" clip-rule="evenodd" d="M8.66699 6C9.77156 6 10.667 6.89543 10.667 8C10.667 9.10457 9.77156 10 8.66699 10L5.33366 10C4.96547 10 4.66699 9.70152 4.66699 9.33333C4.66699 8.96514 4.96547 8.66667 5.33366 8.66667L8.66699 8.66667C9.03518 8.66667 9.33366 8.36819 9.33366 8C9.33366 7.63181 9.03518 7.33333 8.66699 7.33333L5.33366 7.33333C4.96547 7.33333 4.66699 7.03486 4.66699 6.66667C4.66699 6.29848 4.96547 6 5.33366 6L8.66699 6Z" fill="#E8710A"/>
<path fill-rule="evenodd" clip-rule="evenodd" d="M12 0.664062C13.1046 0.664062 14 1.55949 14 2.66406C14 3.76863 13.1046 4.66406 12 4.66406L5.33333 4.66406C4.96514 4.66406 4.66667 4.36558 4.66667 3.99739C4.66667 3.62921 4.96514 3.33073 5.33333 3.33073L12 3.33073C12.3682 3.33073 12.6667 3.03225 12.6667 2.66406C12.6667 2.29587 12.3682 1.9974 12 1.9974L5.33333 1.9974C4.96514 1.9974 4.66667 1.69892 4.66667 1.33073C4.66667 0.962539 4.96514 0.664062 5.33333 0.664062L12 0.664062Z" fill="#E8710A"/>
<path fill-rule="evenodd" clip-rule="evenodd" d="M2.66667 0.664062C3.03486 0.664062 3.33333 0.962539 3.33333 1.33073V14.6641C3.33333 15.0323 3.03486 15.3307 2.66667 15.3307C2.29848 15.3307 2 15.0323 2 14.6641V1.33073C2 0.962539 2.29848 0.664062 2.66667 0.664062Z" fill="#E8710A"/>
</svg>
