<svg width="45" height="45" viewBox="0 0 45 45" fill="none" xmlns="http://www.w3.org/2000/svg">
<rect width="45" height="45" rx="12" fill="#F0F0F0"/>
<path fill-rule="evenodd" clip-rule="evenodd" d="M26.6663 15.2083H18.333C17.7577 15.2083 17.2913 15.6747 17.2913 16.25V20.4167C17.2913 23.2932 19.6232 25.625 22.4997 25.625C25.3762 25.625 27.708 23.2932 27.708 20.4167V16.25C27.708 15.6747 27.2416 15.2083 26.6663 15.2083ZM18.333 13.125C16.6071 13.125 15.208 14.5241 15.208 16.25V20.4167C15.208 24.4437 18.4726 27.7083 22.4997 27.7083C26.5268 27.7083 29.7913 24.4437 29.7913 20.4167V16.25C29.7913 14.5241 28.3922 13.125 26.6663 13.125H18.333Z" fill="#E0D0FF"/>
<path fill-rule="evenodd" clip-rule="evenodd" d="M11.042 18.3359C11.042 16.61 12.4411 15.2109 14.167 15.2109H17.292V23.5443H15.2087C12.9075 23.5443 11.042 21.6788 11.042 19.3776V18.3359ZM14.167 17.2943H15.2087V21.4609C14.0581 21.4609 13.1253 20.5282 13.1253 19.3776V18.3359C13.1253 17.7606 13.5917 17.2943 14.167 17.2943Z" fill="#E0D0FF"/>
<path fill-rule="evenodd" clip-rule="evenodd" d="M33.9587 18.3359C33.9587 16.61 32.5596 15.2109 30.8337 15.2109H27.7087V23.5443H29.792C32.0932 23.5443 33.9587 21.6788 33.9587 19.3776V18.3359ZM30.8337 17.2943H29.792V21.4609C30.9426 21.4609 31.8753 20.5282 31.8753 19.3776V18.3359C31.8753 17.7606 31.409 17.2943 30.8337 17.2943Z" fill="#E0D0FF"/>
<path d="M22.4997 25.625C21.9244 25.625 21.458 26.0914 21.458 26.6667V29.7917H19.3747C18.7994 29.7917 18.333 30.258 18.333 30.8333C18.333 31.4086 18.7994 31.875 19.3747 31.875H25.6247C26.2 31.875 26.6663 31.4086 26.6663 30.8333C26.6663 30.258 26.2 29.7917 25.6247 29.7917H23.5413V26.6667C23.5413 26.0914 23.075 25.625 22.4997 25.625Z" fill="#E0D0FF"/>
</svg>
