<svg width="26" height="26" viewBox="0 0 26 26" fill="none" xmlns="http://www.w3.org/2000/svg">
<path fill-rule="evenodd" clip-rule="evenodd" d="M13.0003 23.8307C18.9834 23.8307 23.8337 18.9805 23.8337 12.9974C23.8337 7.01431 18.9834 2.16406 13.0003 2.16406C7.01724 2.16406 2.16699 7.01431 2.16699 12.9974C2.16699 18.9805 7.01724 23.8307 13.0003 23.8307ZM19.1241 10.4545C19.5146 10.064 19.5146 9.43081 19.1241 9.04029C18.7336 8.64977 18.1004 8.64977 17.7099 9.04029L11.917 14.8332L9.3741 12.2903C8.98357 11.8998 8.35041 11.8998 7.95989 12.2903C7.56936 12.6808 7.56936 13.314 7.95989 13.7045L11.2099 16.9545C11.3974 17.142 11.6518 17.2474 11.917 17.2474C12.1822 17.2474 12.4366 17.142 12.6241 16.9545L19.1241 10.4545Z" fill="#E8710A"/>
</svg>
