<svg width="16" height="16" viewBox="0 0 16 16" fill="none" xmlns="http://www.w3.org/2000/svg">
<path d="M1.63403 3.96811C1.81196 2.75 2.74707 1.81489 3.96518 1.63696C5.02786 1.48173 6.44087 1.33594 7.99967 1.33594C9.55848 1.33594 10.9715 1.48173 12.0342 1.63696C13.2523 1.81489 14.1874 2.75 14.3653 3.96811C14.5205 5.03079 14.6663 6.4438 14.6663 8.0026C14.6663 9.56141 14.5205 10.9744 14.3653 12.0371C14.1874 13.2552 13.2523 14.1903 12.0342 14.3683C10.9715 14.5235 9.55848 14.6693 7.99967 14.6693C6.44087 14.6693 5.02786 14.5235 3.96518 14.3683C2.74707 14.1903 1.81196 13.2552 1.63403 12.0371C1.4788 10.9744 1.33301 9.56141 1.33301 8.0026C1.33301 6.4438 1.4788 5.03079 1.63403 3.96811Z" fill="white"/>
</svg>
