<svg width="31" height="31" viewBox="0 0 31 31" fill="none" xmlns="http://www.w3.org/2000/svg">
<path fill-rule="evenodd" clip-rule="evenodd" d="M14.208 3.8776C14.208 3.16424 14.7863 2.58594 15.4997 2.58594C22.6334 2.58594 28.4163 8.36893 28.4163 15.5026C28.4163 22.6363 22.6334 28.4193 15.4997 28.4193C8.366 28.4193 2.58301 22.6363 2.58301 15.5026C2.58301 11.9133 4.04872 8.66395 6.41106 6.32451C6.91794 5.82254 7.73577 5.82653 8.23773 6.3334C8.7397 6.84028 8.73572 7.65811 8.22884 8.16008C6.33631 10.0343 5.16634 12.6306 5.16634 15.5026C5.16634 21.2095 9.79273 25.8359 15.4997 25.8359C21.2066 25.8359 25.833 21.2095 25.833 15.5026C25.833 9.79566 21.2066 5.16927 15.4997 5.16927C14.7863 5.16927 14.208 4.59097 14.208 3.8776Z" fill="#7347C9"/>
<path fill-rule="evenodd" clip-rule="evenodd" d="M14.208 10.3307C14.208 9.61736 14.7863 9.03906 15.4997 9.03906C19.0665 9.03906 21.958 11.9306 21.958 15.4974C21.958 16.2108 21.3797 16.7891 20.6663 16.7891C19.953 16.7891 19.3747 16.2108 19.3747 15.4974C19.3747 13.3573 17.6398 11.6224 15.4997 11.6224C14.7863 11.6224 14.208 11.0441 14.208 10.3307Z" fill="#7347C9"/>
</svg>
