<svg width="67" height="65" viewBox="0 0 67 65" fill="none" xmlns="http://www.w3.org/2000/svg">
<rect x="0.5" width="66" height="65" rx="16" fill="#E0D0FF"/>
<path fill-rule="evenodd" clip-rule="evenodd" d="M33.5007 46.0837C38.3331 46.0837 42.2506 42.1661 42.2506 37.3337C42.2506 32.5012 38.3331 28.5837 33.5007 28.5837C28.6682 28.5837 24.7507 32.5012 24.7507 37.3337C24.7507 42.1661 28.6682 46.0837 33.5007 46.0837ZM33.5007 49.0003C39.944 49.0003 45.1673 43.777 45.1673 37.3337C45.1673 30.8903 39.944 25.667 33.5007 25.667C27.0573 25.667 21.834 30.8903 21.834 37.3337C21.834 43.777 27.0573 49.0003 33.5007 49.0003Z" fill="#7347C9"/>
<path fill-rule="evenodd" clip-rule="evenodd" d="M33.4993 40.25C35.1102 40.25 36.416 38.9442 36.416 37.3333C36.416 35.7225 35.1102 34.4167 33.4993 34.4167C31.8885 34.4167 30.5827 35.7225 30.5827 37.3333C30.5827 38.9442 31.8885 40.25 33.4993 40.25ZM33.4993 43.1667C36.721 43.1667 39.3327 40.555 39.3327 37.3333C39.3327 34.1117 36.721 31.5 33.4993 31.5C30.2777 31.5 27.666 34.1117 27.666 37.3333C27.666 40.555 30.2777 43.1667 33.4993 43.1667Z" fill="#7347C9"/>
<path d="M26.5525 16.9167C25.4684 16.9167 24.7633 18.0575 25.2481 19.0272L29.0146 26.56C28.106 26.9387 27.2556 27.429 26.4805 28.0138L22.6394 20.3316C21.1849 17.4226 23.3002 14 26.5525 14H28.7807C30.4378 14 31.9527 14.9363 32.6938 16.4184L33.4999 18.0307L34.306 16.4184C35.0471 14.9363 36.562 14 38.2192 14H40.4473C43.6996 14 45.8149 17.4226 44.3604 20.3316L40.5193 28.0138C39.7442 27.429 38.8938 26.9387 37.9852 26.56L41.7517 19.0272C42.2365 18.0575 41.5314 16.9167 40.4473 16.9167H38.2192C37.6668 16.9167 37.1618 17.2288 36.9148 17.7228L35.1304 21.2916L37.7091 26.4491C36.5696 26.0081 35.3437 25.7409 34.0636 25.68L30.085 17.7228C29.838 17.2288 29.333 16.9167 28.7807 16.9167H26.5525Z" fill="#7347C9"/>
</svg>
