<svg width="55" height="55" viewBox="0 0 55 55" fill="none" xmlns="http://www.w3.org/2000/svg">
<circle cx="27.5" cy="27.5" r="27.5" fill="#E0D0FF"/>
<path d="M18.9914 39V36.024C20.3567 34.8933 21.6794 33.7733 22.9594 32.664C24.2607 31.5547 25.4127 30.456 26.4154 29.368C27.4394 28.28 28.25 27.224 28.8474 26.2C29.466 25.1547 29.7754 24.1413 29.7754 23.16C29.7754 22.2427 29.5194 21.432 29.0074 20.728C28.5167 20.024 27.6954 19.672 26.5434 19.672C25.37 19.672 24.4847 20.056 23.8874 20.824C23.29 21.592 22.9914 22.52 22.9914 23.608H19.0234C19.066 21.9653 19.4287 20.6 20.1114 19.512C20.794 18.4027 21.7007 17.5813 22.8314 17.048C23.962 16.4933 25.2314 16.216 26.6394 16.216C28.922 16.216 30.6927 16.8453 31.9514 18.104C33.2314 19.3413 33.8714 20.952 33.8714 22.936C33.8714 24.1733 33.5834 25.3787 33.0074 26.552C32.4527 27.7253 31.7167 28.856 30.7994 29.944C29.882 31.032 28.89 32.056 27.8234 33.016C26.7567 33.9547 25.722 34.8293 24.7194 35.64H34.4154V39H18.9914Z" fill="#8A8A8A"/>
</svg>
