<svg width="65" height="65" viewBox="0 0 65 65" fill="none" xmlns="http://www.w3.org/2000/svg">
<rect width="65" height="65" rx="16" fill="#FFE3CA"/>
<path fill-rule="evenodd" clip-rule="evenodd" d="M19.375 22.2913C19.375 19.0697 21.9867 16.458 25.2083 16.458H37.3754C38.9225 16.458 40.4062 17.0726 41.5002 18.1666L43.9165 20.5828C45.0104 21.6768 45.625 23.1605 45.625 24.7076V42.708C45.625 45.9297 43.0133 48.5413 39.7917 48.5413H25.2083C21.9867 48.5413 19.375 45.9297 19.375 42.708V22.2913ZM42.7083 26.6663V42.708C42.7083 44.3188 41.4025 45.6247 39.7917 45.6247H25.2083C23.5975 45.6247 22.2917 44.3188 22.2917 42.708V22.2913C22.2917 20.6805 23.5975 19.3747 25.2083 19.3747H35.4167V22.2913C35.4167 24.7076 37.3754 26.6663 39.7917 26.6663H42.7083ZM42.5465 23.7497C42.4033 23.3378 42.1682 22.9594 41.8541 22.6452L39.4378 20.2289C39.1236 19.9148 38.7452 19.6797 38.3333 19.5365V22.2913C38.3333 23.0968 38.9863 23.7497 39.7917 23.7497H42.5465Z" fill="#FF983F"/>
<path fill-rule="evenodd" clip-rule="evenodd" d="M39.2091 31.3337C39.8535 31.817 39.9841 32.7311 39.5008 33.3754L35.1258 39.2087C34.6614 39.8279 33.7942 39.9765 33.1502 39.5472L29.9886 37.4394L27.8809 40.601C27.4341 41.2712 26.5287 41.4522 25.8585 41.0055C25.1884 40.5587 25.0073 39.6533 25.4541 38.9831L28.3707 34.6081C28.8175 33.938 29.7229 33.7569 30.3931 34.2037L33.6202 36.3551L37.1675 31.6254C37.6507 30.9811 38.5648 30.8505 39.2091 31.3337Z" fill="#FF983F"/>
</svg>
