<svg width="13" height="24" viewBox="0 0 13 24" fill="none" xmlns="http://www.w3.org/2000/svg">
<path fill-rule="evenodd" clip-rule="evenodd" d="M11.3531 10.6783C11.8999 10.0428 12.2795 9.26585 12.4356 8.41477C12.6116 7.45563 12.75 6.41137 12.75 5.5V0H0.25V5.5C0.25 6.41137 0.388431 7.45563 0.564365 8.41477C0.720475 9.26585 1.10007 10.0428 1.6469 10.6783C2.13807 11.2492 2.76417 11.706 3.48441 12C2.76417 12.294 2.13807 12.7508 1.6469 13.3217C1.10007 13.9572 0.720475 14.7341 0.564365 15.5852C0.388431 16.5444 0.25 17.5886 0.25 18.5V24H12.75V18.5C12.75 17.5886 12.6116 16.5444 12.4356 15.5852C12.2795 14.7341 11.8999 13.9572 11.3531 13.3217C10.8619 12.7508 10.2358 12.294 9.51559 12C10.2358 11.706 10.8619 11.2492 11.3531 10.6783ZM10.6667 22V18.5C10.6667 17.7568 10.5509 16.8427 10.3839 15.9321C10.2057 14.9606 9.55182 14.1881 8.70037 13.8405L6.5 12.9423L4.29963 13.8405C3.44818 14.1881 2.79432 14.9606 2.61613 15.9321C2.4491 16.8427 2.33333 17.7568 2.33333 18.5V22H10.6667ZM6.5 11.0577L8.70037 10.1595C9.55182 9.81191 10.2057 9.03936 10.3839 8.06793C10.5509 7.15732 10.6667 6.24321 10.6667 5.5V2H2.33333V5.5C2.33333 6.24321 2.4491 7.15732 2.61613 8.06793C2.79432 9.03936 3.44818 9.81191 4.29963 10.1595L6.5 11.0577Z" fill="#E8710A"/>
</svg>
