<svg width="17" height="16" viewBox="0 0 17 16" fill="none" xmlns="http://www.w3.org/2000/svg">
<path d="M11.8333 0C12.2015 0 12.5 0.298477 12.5 0.666667V2C12.5 2.36819 12.2015 2.66667 11.8333 2.66667C11.4651 2.66667 11.1667 2.36819 11.1667 2V0.666667C11.1667 0.298477 11.4651 0 11.8333 0Z" fill="#FCFCFD"/>
<path d="M11.8333 8C12.2015 8 12.5 8.29848 12.5 8.66667V12.6667C12.5 13.0349 12.2015 13.3333 11.8333 13.3333C11.4651 13.3333 11.1667 13.0349 11.1667 12.6667V8.66667C11.1667 8.29848 11.4651 8 11.8333 8Z" fill="#FCFCFD"/>
<path d="M5.16667 2.66667C5.53486 2.66667 5.83333 2.96514 5.83333 3.33333V8.66667C5.83333 9.03486 5.53486 9.33333 5.16667 9.33333C4.79848 9.33333 4.5 9.03486 4.5 8.66667V3.33333C4.5 2.96514 4.79848 2.66667 5.16667 2.66667Z" fill="#FCFCFD"/>
<path d="M5.16667 12C5.53486 12 5.83333 12.2985 5.83333 12.6667V15.3333C5.83333 15.7015 5.53486 16 5.16667 16C4.79848 16 4.5 15.7015 4.5 15.3333V12.6667C4.5 12.2985 4.79848 12 5.16667 12Z" fill="#FCFCFD"/>
<path fill-rule="evenodd" clip-rule="evenodd" d="M9.83366 3.33594C9.83366 2.23137 10.7291 1.33594 11.8337 1.33594C12.9382 1.33594 13.8337 2.23137 13.8337 3.33594V7.33594C13.8337 8.44051 12.9382 9.33594 11.8337 9.33594C10.7291 9.33594 9.83366 8.44051 9.83366 7.33594V3.33594ZM12.5003 3.33594V7.33594C12.5003 7.70413 12.2018 8.0026 11.8337 8.0026C11.4655 8.0026 11.167 7.70413 11.167 7.33594V3.33594C11.167 2.96775 11.4655 2.66927 11.8337 2.66927C12.2018 2.66927 12.5003 2.96775 12.5003 3.33594Z" fill="white"/>
<path fill-rule="evenodd" clip-rule="evenodd" d="M3.16699 10.0026C3.16699 8.89803 4.06242 8.0026 5.16699 8.0026C6.27156 8.0026 7.16699 8.89803 7.16699 10.0026V11.3359C7.16699 12.4405 6.27156 13.3359 5.16699 13.3359C4.06242 13.3359 3.16699 12.4405 3.16699 11.3359V10.0026ZM5.83366 10.0026V11.3359C5.83366 11.7041 5.53518 12.0026 5.16699 12.0026C4.7988 12.0026 4.50033 11.7041 4.50033 11.3359V10.0026C4.50033 9.63441 4.7988 9.33594 5.16699 9.33594C5.53518 9.33594 5.83366 9.63441 5.83366 10.0026Z" fill="white"/>
</svg>
