<svg width="45" height="45" viewBox="0 0 45 45" fill="none" xmlns="http://www.w3.org/2000/svg">
<rect width="45" height="45" rx="12" fill="#F0F0F0"/>
<g clip-path="url(#clip0_556_3434)">
<path fill-rule="evenodd" clip-rule="evenodd" d="M22.5003 32.9193C25.9521 32.9193 28.7503 30.1211 28.7503 26.6693C28.7503 23.2175 25.9521 20.4193 22.5003 20.4193C19.0485 20.4193 16.2503 23.2175 16.2503 26.6693C16.2503 30.1211 19.0485 32.9193 22.5003 32.9193ZM22.5003 35.0026C27.1027 35.0026 30.8337 31.2716 30.8337 26.6693C30.8337 22.0669 27.1027 18.3359 22.5003 18.3359C17.898 18.3359 14.167 22.0669 14.167 26.6693C14.167 31.2716 17.898 35.0026 22.5003 35.0026Z" fill="#E0D0FF"/>
<path fill-rule="evenodd" clip-rule="evenodd" d="M22.4997 28.75C23.6503 28.75 24.583 27.8173 24.583 26.6667C24.583 25.5161 23.6503 24.5833 22.4997 24.5833C21.3491 24.5833 20.4163 25.5161 20.4163 26.6667C20.4163 27.8173 21.3491 28.75 22.4997 28.75ZM22.4997 30.8333C24.8009 30.8333 26.6663 28.9679 26.6663 26.6667C26.6663 24.3655 24.8009 22.5 22.4997 22.5C20.1985 22.5 18.333 24.3655 18.333 26.6667C18.333 28.9679 20.1985 30.8333 22.4997 30.8333Z" fill="#E0D0FF"/>
<path d="M17.5372 12.0833C16.7629 12.0833 16.2592 12.8982 16.6055 13.5908L19.2958 18.9715C18.6469 19.242 18.0395 19.5922 17.4858 20.0098L14.7422 14.5225C13.7032 12.4447 15.2142 10 17.5372 10H19.1288C20.3124 10 21.3945 10.6688 21.9238 11.7275L22.4997 12.8791L23.0755 11.7275C23.6048 10.6688 24.6869 10 25.8705 10H27.4621C29.7851 10 31.2961 12.4447 30.2572 14.5225L27.5135 20.0098C26.9598 19.5922 26.3524 19.242 25.7035 18.9715L28.3938 13.5908C28.7401 12.8982 28.2364 12.0833 27.4621 12.0833H25.8705C25.476 12.0833 25.1153 12.3063 24.9388 12.6592L23.6643 15.2083L25.5062 18.8922C24.6923 18.5772 23.8166 18.3864 22.9023 18.3429L20.0605 12.6592C19.884 12.3063 19.5233 12.0833 19.1288 12.0833H17.5372Z" fill="#E0D0FF"/>
</g>
<defs>
<clipPath id="clip0_556_3434">
<rect width="25" height="25" fill="white" transform="translate(10 10)"/>
</clipPath>
</defs>
</svg>
