<svg width="31" height="31" viewBox="0 0 31 31" fill="none" xmlns="http://www.w3.org/2000/svg">
<path fill-rule="evenodd" clip-rule="evenodd" d="M14.208 3.8776C14.208 3.16424 14.7863 2.58594 15.4997 2.58594C22.6334 2.58594 28.4163 8.36893 28.4163 15.5026C28.4163 22.6363 22.6334 28.4193 15.4997 28.4193C8.366 28.4193 2.58301 22.6363 2.58301 15.5026C2.58301 14.7892 3.16131 14.2109 3.87467 14.2109C4.58804 14.2109 5.16634 14.7892 5.16634 15.5026C5.16634 21.2095 9.79273 25.8359 15.4997 25.8359C21.2066 25.8359 25.833 21.2095 25.833 15.5026C25.833 9.79566 21.2066 5.16927 15.4997 5.16927C14.7863 5.16927 14.208 4.59097 14.208 3.8776Z" fill="#E8710A"/>
<path fill-rule="evenodd" clip-rule="evenodd" d="M14.208 10.3307C14.208 9.61736 14.7863 9.03906 15.4997 9.03906C19.0665 9.03906 21.958 11.9306 21.958 15.4974C21.958 19.0642 19.0665 21.9557 15.4997 21.9557C14.7863 21.9557 14.208 21.3774 14.208 20.6641C14.208 19.9507 14.7863 19.3724 15.4997 19.3724C17.6398 19.3724 19.3747 17.6375 19.3747 15.4974C19.3747 13.3573 17.6398 11.6224 15.4997 11.6224C14.7863 11.6224 14.208 11.0441 14.208 10.3307Z" fill="#E8710A"/>
</svg>
