<svg width="16" height="16" viewBox="0 0 16 16" fill="none" xmlns="http://www.w3.org/2000/svg">
<path d="M1.33301 2.66927C1.33301 1.93289 1.92996 1.33594 2.66634 1.33594H5.33301C6.06939 1.33594 6.66634 1.93289 6.66634 2.66927V13.3359C6.66634 14.0723 6.06939 14.6693 5.33301 14.6693H2.66634C1.92996 14.6693 1.33301 14.0723 1.33301 13.3359V2.66927Z" fill="white"/>
<path d="M9.33301 2.66927C9.33301 1.93289 9.92996 1.33594 10.6663 1.33594H13.333C14.0694 1.33594 14.6663 1.93289 14.6663 2.66927V13.3359C14.6663 14.0723 14.0694 14.6693 13.333 14.6693H10.6663C9.92996 14.6693 9.33301 14.0723 9.33301 13.3359V2.66927Z" fill="white"/>
</svg>
