<svg width="23" height="23" viewBox="0 0 23 23" fill="none" xmlns="http://www.w3.org/2000/svg">
<path d="M2.8457 20.8706C2.8457 20.3466 3.27045 19.9219 3.7944 19.9219H18.9736C19.4975 19.9219 19.9223 20.3466 19.9223 20.8706C19.9223 21.3945 19.4975 21.8193 18.9736 21.8193H3.7944C3.27045 21.8193 2.8457 21.3945 2.8457 20.8706Z" fill="#7347C9"/>
<path fill-rule="evenodd" clip-rule="evenodd" d="M15.8496 2.96433C15.4791 2.59384 14.8784 2.59384 14.508 2.96433L13.6744 3.7979L17.0762 7.19973L17.9098 6.36616C18.2803 5.99567 18.2803 5.39498 17.9098 5.0245L15.8496 2.96433ZM6.55914 10.9131L12.3327 5.13956L15.7345 8.54139L9.96097 14.315L6.55914 10.9131ZM5.21748 12.2548L4.7431 12.7292V16.131H8.14493L8.61931 15.6566L5.21748 12.2548ZM13.1663 1.62266C14.2778 0.511195 16.0798 0.511195 17.1913 1.62266L19.2514 3.68283C20.3629 4.7943 20.3629 6.59635 19.2514 7.70782L9.48659 17.4727C9.13076 17.8285 8.64815 18.0284 8.14493 18.0284H4.7431C3.6952 18.0284 2.8457 17.1789 2.8457 16.131V12.7292C2.8457 12.226 3.04561 11.7433 3.40144 11.3875L13.1663 1.62266Z" fill="#7347C9"/>
</svg>
