<svg width="24" height="25" viewBox="0 0 24 25" fill="none" xmlns="http://www.w3.org/2000/svg">
<path d="M2.15845 20.4667L3.69552 16.3679C3.89601 15.8332 4.20865 15.3477 4.61241 14.9439L4.64622 14.9101C4.84148 14.7149 5.15806 14.7149 5.35332 14.9101L9.64622 19.203C9.84148 19.3983 9.84148 19.7149 9.64622 19.9101L9.61241 19.9439C9.20865 20.3477 8.72312 20.6603 8.18848 20.8608L4.08963 22.3979C2.8838 22.8501 1.70627 21.6725 2.15845 20.4667Z" fill="#53358D"/>
<path d="M11.1462 17.703C11.3415 17.8983 11.6581 17.8983 11.8533 17.703L17.6462 11.9101C17.8415 11.7149 17.8415 11.3983 17.6462 11.203L13.3533 6.91012C13.1581 6.71486 12.8415 6.71486 12.6462 6.91012L6.85332 12.703C6.65806 12.8983 6.65806 13.2149 6.85332 13.4101L11.1462 17.703Z" fill="#53358D"/>
<path d="M14.8535 4.7031C14.6582 4.89836 14.6582 5.21494 14.8535 5.41021L19.1464 9.7031C19.3416 9.89836 19.6582 9.89836 19.8535 9.7031L20.8786 8.678C22.0502 7.50642 22.0502 5.60693 20.8786 4.43536L20.1212 3.678C18.9496 2.50642 17.0502 2.50642 15.8786 3.67799L14.8535 4.7031Z" fill="#53358D"/>
</svg>
