<svg width="24" height="25" viewBox="0 0 24 25" fill="none" xmlns="http://www.w3.org/2000/svg">
<path fill-rule="evenodd" clip-rule="evenodd" d="M2.02276 18.9545L2.74741 15.6936C2.91243 14.951 3.28581 14.2708 3.82373 13.7329L13.6717 3.88495C15.2338 2.32286 17.7664 2.32285 19.3285 3.88495L20.6717 5.2281C22.2338 6.79019 22.2338 9.32285 20.6717 10.885L10.8237 20.7329C10.2858 21.2708 9.60564 21.6442 8.86302 21.8092L5.60211 22.5338C3.45862 23.0102 1.54643 21.098 2.02276 18.9545ZM4.69978 16.1274L3.97514 19.3884C3.81636 20.1029 4.45375 20.7403 5.16825 20.5815L8.42916 19.8568C8.78626 19.7775 9.11448 19.6018 9.37833 19.3492L5.20743 15.1783C4.95485 15.4421 4.77914 15.7703 4.69978 16.1274ZM6.62131 13.7637L10.7929 17.9353L16.3787 12.3495L12.2071 8.17795L6.62131 13.7637ZM19.2575 9.47074L17.7929 10.9353L13.6213 6.76373L15.0859 5.29917C15.8669 4.51812 17.1333 4.51812 17.9143 5.29916L19.2575 6.64231C20.0385 7.42336 20.0385 8.68969 19.2575 9.47074Z" fill="#D6D6D6"/>
</svg>
