<svg width="24" height="25" viewBox="0 0 24 25" fill="none" xmlns="http://www.w3.org/2000/svg">
<path d="M13 6.55664L12.4104 5.57396C11.8306 4.60758 10.8702 3.92499 9.75227 3.78249C8.83875 3.66604 7.66937 3.55664 6.5 3.55664C5.68392 3.55664 4.86784 3.60992 4.13873 3.68169C2.53169 3.83989 1.31947 5.09285 1.19597 6.70292C1.09136 8.06673 1 9.99193 1 12.5566C1 14.3772 1.06629 15.9989 1.15059 17.3251C1.29156 19.5429 3.01613 21.2501 5.23467 21.378C6.91963 21.4752 9.17474 21.5566 12 21.5566C14.8253 21.5566 17.0804 21.4752 18.7653 21.378C20.9839 21.2501 22.7084 19.5429 22.8494 17.3251C22.9337 15.9989 23 14.3772 23 12.5566C23 11.5155 22.9398 10.5346 22.8611 9.69749C22.7101 8.08977 21.4669 6.84654 19.8591 6.6955C19.0221 6.61686 18.0411 6.55664 17 6.55664H13Z" fill="#53358D"/>
</svg>
