<svg width="24" height="25" viewBox="0 0 24 25" fill="none" xmlns="http://www.w3.org/2000/svg">
<path fill-rule="evenodd" clip-rule="evenodd" d="M11.8676 8.55664L10.6954 6.60295C10.398 6.10719 9.94858 5.82369 9.49937 5.76643C8.63403 5.65612 7.55518 5.55664 6.5 5.55664C5.76672 5.55664 5.0186 5.60475 4.33466 5.67207C3.70504 5.73405 3.24029 6.20176 3.19011 6.85588C3.08968 8.16525 3 10.0393 3 12.5566C3 14.3292 3.06456 15.9082 3.14656 17.1983C3.22311 18.4025 4.13628 19.3114 5.34979 19.3814C6.99648 19.4763 9.2132 19.5566 12 19.5566C14.7868 19.5566 17.0035 19.4763 18.6502 19.3814C19.8637 19.3114 20.7769 18.4025 20.8534 17.1983C20.9354 15.9082 21 14.3292 21 12.5566C21 11.5905 20.944 10.6734 20.8699 9.88456C20.8087 9.23355 20.3231 8.74789 19.6721 8.68674C18.8833 8.61263 17.9661 8.55664 17 8.55664H11.8676ZM13 6.55664L12.4104 5.57396C11.8306 4.60758 10.8702 3.92499 9.75227 3.78249C8.83875 3.66604 7.66937 3.55664 6.5 3.55664C5.68392 3.55664 4.86784 3.60992 4.13873 3.68169C2.53169 3.83989 1.31947 5.09285 1.19597 6.70292C1.09136 8.06673 1 9.99193 1 12.5566C1 14.3772 1.06629 15.9989 1.15059 17.3251C1.29156 19.5429 3.01613 21.2501 5.23467 21.378C6.91963 21.4752 9.17474 21.5566 12 21.5566C14.8253 21.5566 17.0804 21.4752 18.7653 21.378C20.9839 21.2501 22.7084 19.5429 22.8494 17.3251C22.9337 15.9989 23 14.3772 23 12.5566C23 11.5155 22.9398 10.5346 22.8611 9.69749C22.7101 8.08977 21.4669 6.84654 19.8591 6.6955C19.0221 6.61686 18.0411 6.55664 17 6.55664H13Z" fill="#D6D6D6"/>
</svg>
