<svg width="23" height="23" viewBox="0 0 23 23" fill="none" xmlns="http://www.w3.org/2000/svg">
<path d="M6.6405 2.84375C4.54469 2.84375 2.8457 4.54274 2.8457 6.63854V18.0229C2.8457 20.1187 4.54469 21.8177 6.6405 21.8177H16.1275C18.2233 21.8177 19.9223 20.1187 19.9223 18.0229V6.63854C19.9223 4.54274 18.2233 2.84375 16.1275 2.84375V4.74115C17.1754 4.74115 18.0249 5.59064 18.0249 6.63854V18.0229C18.0249 19.0708 17.1754 19.9203 16.1275 19.9203H6.6405C5.59259 19.9203 4.7431 19.0708 4.7431 18.0229V6.63854C4.7431 5.59064 5.59259 4.74115 6.6405 4.74115V2.84375Z" fill="#7347C9"/>
<path d="M7.58932 10.4365C8.11328 10.4365 8.53802 10.0117 8.53802 9.48776C8.53802 8.96381 8.11328 8.53906 7.58932 8.53906C7.06537 8.53906 6.64062 8.96381 6.64062 9.48776C6.64062 10.0117 7.06537 10.4365 7.58932 10.4365Z" fill="#7347C9"/>
<path d="M11.3841 8.53906C10.8602 8.53906 10.4354 8.96381 10.4354 9.48776C10.4354 10.0117 10.8602 10.4365 11.3841 10.4365H15.1789C15.7029 10.4365 16.1276 10.0117 16.1276 9.48776C16.1276 8.96381 15.7029 8.53906 15.1789 8.53906H11.3841Z" fill="#7347C9"/>
<path d="M11.3841 12.3339C10.8602 12.3339 10.4354 12.7586 10.4354 13.2826C10.4354 13.8065 10.8602 14.2313 11.3841 14.2313H15.1789C15.7029 14.2313 16.1276 13.8065 16.1276 13.2826C16.1276 12.7586 15.7029 12.3339 15.1789 12.3339H11.3841Z" fill="#7347C9"/>
<path d="M10.4354 17.0773C10.4354 16.5534 10.8602 16.1286 11.3841 16.1286H13.2815C13.8055 16.1286 14.2302 16.5534 14.2302 17.0773C14.2302 17.6013 13.8055 18.026 13.2815 18.026H11.3841C10.8602 18.026 10.4354 17.6013 10.4354 17.0773Z" fill="#7347C9"/>
<path d="M8.53802 13.2826C8.53802 13.8065 8.11328 14.2313 7.58932 14.2313C7.06537 14.2313 6.64062 13.8065 6.64062 13.2826C6.64062 12.7586 7.06537 12.3339 7.58932 12.3339C8.11328 12.3339 8.53802 12.7586 8.53802 13.2826Z" fill="#7347C9"/>
<path d="M7.58932 18.026C8.11328 18.026 8.53802 17.6013 8.53802 17.0773C8.53802 16.5534 8.11328 16.1286 7.58932 16.1286C7.06537 16.1286 6.64062 16.5534 6.64062 17.0773C6.64062 17.6013 7.06537 18.026 7.58932 18.026Z" fill="#7347C9"/>
<path fill-rule="evenodd" clip-rule="evenodd" d="M14.2307 2.84271H8.53848C8.01453 2.84271 7.58978 3.26746 7.58978 3.79141C7.58978 4.31536 8.01453 4.74011 8.53848 4.74011H14.2307C14.7546 4.74011 15.1794 4.31536 15.1794 3.79141C15.1794 3.26746 14.7546 2.84271 14.2307 2.84271ZM8.53848 0.945312C6.96662 0.945312 5.69238 2.21955 5.69238 3.79141C5.69238 5.36326 6.96662 6.6375 8.53848 6.6375H14.2307C15.8025 6.6375 17.0768 5.36326 17.0768 3.79141C17.0768 2.21955 15.8025 0.945312 14.2307 0.945312H8.53848Z" fill="#7347C9"/>
</svg>
