<svg width="166" height="166" viewBox="0 0 166 166" fill="none" xmlns="http://www.w3.org/2000/svg">
<circle cx="82.8639" cy="82.8639" r="82.8639" fill="#7347C9"/>
<circle cx="82.8631" cy="82.8631" r="52.5194" fill="#A175F7"/>
<path d="M68.5286 58.2266C62.2694 58.2266 57.1953 63.3007 57.1953 69.5599V103.56C57.1953 109.819 62.2694 114.893 68.5286 114.893H96.862C103.121 114.893 108.195 109.819 108.195 103.56V69.5599C108.195 63.3007 103.121 58.2266 96.862 58.2266V63.8932C99.9916 63.8932 102.529 66.4303 102.529 69.5599V103.56C102.529 106.69 99.9916 109.227 96.862 109.227H68.5286C65.399 109.227 62.862 106.69 62.862 103.56V69.5599C62.862 66.4303 65.399 63.8932 68.5286 63.8932V58.2266Z" fill="white"/>
<path d="M71.3626 80.8932C72.9274 80.8932 74.196 79.6247 74.196 78.0599C74.196 76.4951 72.9274 75.2266 71.3626 75.2266C69.7978 75.2266 68.5293 76.4951 68.5293 78.0599C68.5293 79.6247 69.7978 80.8932 71.3626 80.8932Z" fill="white"/>
<path d="M82.696 75.2266C81.1312 75.2266 79.8626 76.4951 79.8626 78.0599C79.8626 79.6247 81.1312 80.8932 82.696 80.8932H94.0293C95.5941 80.8932 96.8626 79.6247 96.8626 78.0599C96.8626 76.4951 95.5941 75.2266 94.0293 75.2266H82.696Z" fill="white"/>
<path d="M82.696 86.5599C81.1312 86.5599 79.8626 87.8284 79.8626 89.3932C79.8626 90.958 81.1312 92.2266 82.696 92.2266H94.0293C95.5941 92.2266 96.8626 90.958 96.8626 89.3932C96.8626 87.8284 95.5941 86.5599 94.0293 86.5599H82.696Z" fill="white"/>
<path d="M79.8626 100.727C79.8626 99.1618 81.1312 97.8932 82.696 97.8932H88.3626C89.9274 97.8932 91.196 99.1618 91.196 100.727C91.196 102.291 89.9274 103.56 88.3626 103.56H82.696C81.1312 103.56 79.8626 102.291 79.8626 100.727Z" fill="white"/>
<path d="M74.196 89.3932C74.196 90.958 72.9274 92.2266 71.3626 92.2266C69.7978 92.2266 68.5293 90.958 68.5293 89.3932C68.5293 87.8284 69.7978 86.5599 71.3626 86.5599C72.9274 86.5599 74.196 87.8284 74.196 89.3932Z" fill="white"/>
<path d="M71.3626 103.56C72.9274 103.56 74.196 102.291 74.196 100.727C74.196 99.1618 72.9274 97.8932 71.3626 97.8932C69.7978 97.8932 68.5293 99.1618 68.5293 100.727C68.5293 102.291 69.7978 103.56 71.3626 103.56Z" fill="white"/>
<path fill-rule="evenodd" clip-rule="evenodd" d="M91.1953 58.2262H74.1953C72.6305 58.2262 71.362 59.4948 71.362 61.0596C71.362 62.6244 72.6305 63.8929 74.1953 63.8929H91.1953C92.7601 63.8929 94.0286 62.6244 94.0286 61.0596C94.0286 59.4948 92.7601 58.2262 91.1953 58.2262ZM74.1953 52.5596C69.5009 52.5596 65.6953 56.3652 65.6953 61.0596C65.6953 65.754 69.5009 69.5596 74.1953 69.5596H91.1953C95.8897 69.5596 99.6953 65.754 99.6953 61.0596C99.6953 56.3652 95.8897 52.5596 91.1953 52.5596H74.1953Z" fill="white"/>
</svg>
