<svg width="14" height="14" viewBox="0 0 14 14" fill="none" xmlns="http://www.w3.org/2000/svg">
<path fill-rule="evenodd" clip-rule="evenodd" d="M8.93677 9.88251C8.03365 10.5846 6.89882 11.0026 5.66634 11.0026C2.72082 11.0026 0.333008 8.61479 0.333008 5.66927C0.333008 2.72375 2.72082 0.335938 5.66634 0.335938C8.61186 0.335938 10.9997 2.72375 10.9997 5.66927C10.9997 6.90175 10.5816 8.03658 9.87958 8.9397L13.4711 12.5312C13.7314 12.7916 13.7314 13.2137 13.4711 13.474C13.2107 13.7344 12.7886 13.7344 12.5283 13.474L8.93677 9.88251ZM9.66634 5.66927C9.66634 7.87841 7.87548 9.66927 5.66634 9.66927C3.4572 9.66927 1.66634 7.87841 1.66634 5.66927C1.66634 3.46013 3.4572 1.66927 5.66634 1.66927C7.87548 1.66927 9.66634 3.46013 9.66634 5.66927Z" fill="#8A8A8A"/>
</svg>
