<svg width="22" height="22" viewBox="0 0 22 22" fill="none" xmlns="http://www.w3.org/2000/svg">
<path fill-rule="evenodd" clip-rule="evenodd" d="M17.4167 9.16146H4.58334V16.4948C4.58334 17.5073 5.40415 18.3282 6.41668 18.3282H15.5834C16.5959 18.3282 17.4167 17.5073 17.4167 16.4948V9.16146ZM2.75 7.32812V16.4948C2.75 18.5199 4.39163 20.1615 6.41668 20.1615H15.5834C17.6084 20.1615 19.2501 18.5199 19.2501 16.4948V7.32812H2.75Z" fill="white"/>
<path d="M8.25 11.9167C8.25 11.4104 8.66041 11 9.16667 11H12.8334C13.3396 11 13.75 11.4104 13.75 11.9167C13.75 12.4229 13.3396 12.8333 12.8334 12.8333H9.16667C8.66041 12.8333 8.25 12.4229 8.25 11.9167Z" fill="white"/>
<path fill-rule="evenodd" clip-rule="evenodd" d="M17.4174 3.66928H4.58399C4.07773 3.66928 3.66732 4.07968 3.66732 4.58595V6.41929C3.66732 6.92555 4.07773 7.33596 4.58399 7.33596H17.4174C17.9236 7.33596 18.334 6.92555 18.334 6.41929V4.58595C18.334 4.07968 17.9236 3.66928 17.4174 3.66928ZM4.58399 1.83594C3.06521 1.83594 1.83398 3.06716 1.83398 4.58595V6.41929C1.83398 7.93808 3.06521 9.1693 4.58399 9.1693H17.4174C18.9362 9.1693 20.1674 7.93808 20.1674 6.41929V4.58595C20.1674 3.06716 18.9362 1.83594 17.4174 1.83594H4.58399Z" fill="white"/>
</svg>
