<svg width="23" height="23" viewBox="0 0 23 23" fill="none" xmlns="http://www.w3.org/2000/svg">
<path fill-rule="evenodd" clip-rule="evenodd" d="M18.8714 11.3854C18.8714 15.5204 15.5194 18.8724 11.3844 18.8724C7.2495 18.8724 3.89746 15.5204 3.89746 11.3854C3.89746 7.25047 7.2495 3.89844 11.3844 3.89844C15.5194 3.89844 18.8714 7.25047 18.8714 11.3854ZM20.8714 11.3854C20.8714 16.6249 16.624 20.8724 11.3844 20.8724C6.14493 20.8724 1.89746 16.6249 1.89746 11.3854C1.89746 6.1459 6.14493 1.89844 11.3844 1.89844C16.624 1.89844 20.8714 6.1459 20.8714 11.3854ZM11.3844 5.64193C11.9367 5.64193 12.3844 6.08964 12.3844 6.64193V10.3854H16.1279C16.6802 10.3854 17.1279 10.8331 17.1279 11.3854C17.1279 11.9377 16.6802 12.3854 16.1279 12.3854H12.3844V16.1289C12.3844 16.6812 11.9367 17.1289 11.3844 17.1289C10.8322 17.1289 10.3844 16.6812 10.3844 16.1289V12.3854H6.64095C6.08867 12.3854 5.64095 11.9377 5.64095 11.3854C5.64095 10.8331 6.08867 10.3854 6.64095 10.3854H10.3844V6.64193C10.3844 6.08964 10.8322 5.64193 11.3844 5.64193Z" fill="#7347C9"/>
</svg>
