<svg width="59" height="58" viewBox="0 0 59 58" fill="none" xmlns="http://www.w3.org/2000/svg">
<circle cx="29.75" cy="29" r="29" fill="#7347C9"/>
<g clip-path="url(#clip0_394_53)">
<path fill-rule="evenodd" clip-rule="evenodd" d="M29.2493 41.4163C33.5296 41.4163 36.9994 37.9465 36.9994 33.6663C36.9994 29.3861 33.5296 25.9163 29.2493 25.9163C24.9691 25.9163 21.4993 29.3861 21.4993 33.6663C21.4993 37.9465 24.9691 41.4163 29.2493 41.4163ZM29.2493 43.9997C34.9563 43.9997 39.5827 39.3733 39.5827 33.6663C39.5827 27.9594 34.9563 23.333 29.2493 23.333C23.5424 23.333 18.916 27.9594 18.916 33.6663C18.916 39.3733 23.5424 43.9997 29.2493 43.9997Z" fill="white"/>
<path fill-rule="evenodd" clip-rule="evenodd" d="M29.2507 36.25C30.6774 36.25 31.834 35.0934 31.834 33.6667C31.834 32.2399 30.6774 31.0833 29.2507 31.0833C27.8239 31.0833 26.6673 32.2399 26.6673 33.6667C26.6673 35.0934 27.8239 36.25 29.2507 36.25ZM29.2507 38.8333C32.1041 38.8333 34.4173 36.5201 34.4173 33.6667C34.4173 30.8132 32.1041 28.5 29.2507 28.5C26.3972 28.5 24.084 30.8132 24.084 33.6667C24.084 36.5201 26.3972 38.8333 29.2507 38.8333Z" fill="white"/>
<path d="M23.0968 15.5833C22.1366 15.5833 21.5121 16.5938 21.9415 17.4526L25.2775 24.1246C24.4728 24.46 23.7196 24.8943 23.033 25.4122L19.6309 18.608C18.3426 16.0315 20.2162 13 23.0968 13H25.0703C26.538 13 27.8798 13.8293 28.5362 15.142L29.2502 16.57L29.9642 15.142C30.6206 13.8293 31.9624 13 33.4301 13H35.4036C38.2842 13 40.1577 16.0315 38.8695 18.608L35.4674 25.4122C34.7808 24.8943 34.0276 24.46 33.2229 24.1246L36.5589 17.4526C36.9883 16.5938 36.3638 15.5833 35.4036 15.5833H33.4301C32.9409 15.5833 32.4936 15.8598 32.2748 16.2973L30.6943 19.4583L32.9783 24.0263C31.9691 23.6358 30.8832 23.3991 29.7495 23.3452L26.2256 16.2973C26.0068 15.8598 25.5595 15.5833 25.0703 15.5833H23.0968Z" fill="white"/>
</g>
<defs>
<clipPath id="clip0_394_53">
<rect width="31" height="31" fill="white" transform="translate(13.75 13)"/>
</clipPath>
</defs>
</svg>
