<svg width="167" height="166" viewBox="0 0 167 166" fill="none" xmlns="http://www.w3.org/2000/svg">
<circle cx="83.1686" cy="83.1373" r="82.8639" fill="#7347C9"/>
<circle cx="83.1678" cy="83.1366" r="52.5194" fill="#A175F7"/>
<g clip-path="url(#clip0_380_17)">
<path fill-rule="evenodd" clip-rule="evenodd" d="M83.0007 112.334C92.3895 112.334 100.001 104.723 100.001 95.3337C100.001 85.9448 92.3895 78.3337 83.0007 78.3337C73.6118 78.3337 66.0007 85.9448 66.0007 95.3337C66.0007 104.723 73.6118 112.334 83.0007 112.334ZM83.0007 118C95.5191 118 105.667 107.852 105.667 95.3337C105.667 82.8152 95.5191 72.667 83.0007 72.667C70.4822 72.667 60.334 82.8152 60.334 95.3337C60.334 107.852 70.4822 118 83.0007 118Z" fill="white"/>
<path fill-rule="evenodd" clip-rule="evenodd" d="M82.9993 101C86.129 101 88.666 98.4629 88.666 95.3333C88.666 92.2037 86.129 89.6667 82.9993 89.6667C79.8697 89.6667 77.3327 92.2037 77.3327 95.3333C77.3327 98.4629 79.8697 101 82.9993 101ZM82.9993 106.667C89.2586 106.667 94.3327 101.593 94.3327 95.3333C94.3327 89.0741 89.2586 84 82.9993 84C76.7401 84 71.666 89.0741 71.666 95.3333C71.666 101.593 76.7401 106.667 82.9993 106.667Z" fill="white"/>
<path d="M69.5032 55.6667C67.3969 55.6667 66.027 57.8832 66.9689 59.7671L74.2866 74.4024C72.5214 75.1381 70.8692 76.0907 69.3632 77.2267L61.9005 62.3013C59.0747 56.6496 63.1844 50 69.5032 50H73.8321C77.0517 50 79.9949 51.819 81.4347 54.6987L83.0009 57.8311L84.5671 54.6987C86.007 51.819 88.9502 50 92.1698 50H96.4987C102.817 50 106.927 56.6496 104.101 62.3013L96.6386 77.2267C95.1327 76.0907 93.4805 75.1381 91.7153 74.4024L99.0329 59.7671C99.9749 57.8832 98.605 55.6667 96.4987 55.6667H92.1698C91.0966 55.6667 90.1155 56.273 89.6355 57.2329L86.1687 64.1666L91.1788 74.1868C88.965 73.3301 86.5831 72.811 84.0962 72.6927L76.3663 57.2329C75.8864 56.273 74.9053 55.6667 73.8321 55.6667H69.5032Z" fill="white"/>
</g>
<defs>
<clipPath id="clip0_380_17">
<rect width="68" height="68" fill="white" transform="translate(49 50)"/>
</clipPath>
</defs>
</svg>
