<svg width="23" height="23" viewBox="0 0 23 23" fill="none" xmlns="http://www.w3.org/2000/svg">
<g clip-path="url(#clip0_959_5372)">
<path d="M3.67383 0.918576C3.67383 0.411261 4.08509 0 4.5924 0C5.09972 0 5.51098 0.41126 5.51098 0.918576V21.1272C5.51098 21.6346 5.09972 22.0458 4.5924 22.0458C4.08509 22.0458 3.67383 21.6346 3.67383 21.1272V0.918576Z" fill="white"/>
<path fill-rule="evenodd" clip-rule="evenodd" d="M10.2607 12.8667H3.67383V1.84375H9.18528C10.3851 1.84375 11.4059 2.61058 11.7842 3.6809H16.317C17.6827 3.6809 18.571 5.11813 17.9602 6.33965L16.5339 9.19236L17.9602 12.0451C18.571 13.2666 17.6827 14.7038 16.317 14.7038H12.8596C11.6597 14.7038 10.639 13.937 10.2607 12.8667ZM5.51098 3.6809H9.18528C9.6926 3.6809 10.1039 4.09216 10.1039 4.59948V11.0295H5.51098V3.6809ZM11.941 11.9481C11.941 12.4554 12.3523 12.8667 12.8596 12.8667H16.317L14.4799 9.19236L16.317 5.51805H11.941V11.9481Z" fill="white"/>
</g>
<defs>
<clipPath id="clip0_959_5372">
<rect width="22.0458" height="22.0458" fill="white"/>
</clipPath>
</defs>
</svg>
