<svg width="23" height="23" viewBox="0 0 23 23" fill="none" xmlns="http://www.w3.org/2000/svg">
<path fill-rule="evenodd" clip-rule="evenodd" d="M11.3844 18.975C15.5761 18.975 18.974 15.577 18.974 11.3854C18.974 7.19381 15.5761 3.79583 11.3844 3.79583C7.19283 3.79583 3.79486 7.19381 3.79486 11.3854C3.79486 15.577 7.19283 18.975 11.3844 18.975ZM11.3844 20.8724C16.624 20.8724 20.8714 16.6249 20.8714 11.3854C20.8714 6.1459 16.624 1.89844 11.3844 1.89844C6.14493 1.89844 1.89746 6.1459 1.89746 11.3854C1.89746 16.6249 6.14493 20.8724 11.3844 20.8724Z" fill="#E8710A"/>
<path fill-rule="evenodd" clip-rule="evenodd" d="M11.3842 5.69531C11.9082 5.69531 12.3329 6.12006 12.3329 6.64401V10.9945L14.4268 13.0884C14.7973 13.4589 14.7973 14.0596 14.4268 14.4301C14.0563 14.8006 13.4556 14.8006 13.0852 14.4301L10.7134 12.0583C10.5355 11.8804 10.4355 11.6391 10.4355 11.3875V6.64401C10.4355 6.12006 10.8603 5.69531 11.3842 5.69531Z" fill="#E8710A"/>
</svg>
