<svg width="22" height="21" viewBox="0 0 22 21" fill="none" xmlns="http://www.w3.org/2000/svg">
<path fill-rule="evenodd" clip-rule="evenodd" d="M8.52275 7.43409C8.42172 7.67607 8.19391 7.84129 7.93252 7.86216L3.18325 8.24143C2.56183 8.29106 2.31039 9.06705 2.78461 9.4717L6.39904 12.5558C6.59925 12.7267 6.68672 12.9954 6.62542 13.2514L5.52045 17.8657C5.37552 18.4709 6.03337 18.9502 6.56505 18.6267L10.6365 16.1495C10.86 16.0136 11.1406 16.0136 11.3642 16.1495L15.4356 18.6267C15.9672 18.9502 16.6251 18.4709 16.4802 17.8657L15.3752 13.2514C15.3139 12.9954 15.4014 12.7267 15.6016 12.5558L19.216 9.4717C19.6902 9.06705 19.4388 8.29106 18.8174 8.24143L14.0681 7.86216C13.8067 7.84129 13.5789 7.67607 13.4779 7.43409L11.6463 3.04747C11.4067 2.47376 10.5939 2.47376 10.3544 3.04748L8.52275 7.43409ZM15.0179 5.93164L13.4918 2.27687C12.5679 0.0639514 9.43275 0.063971 8.50877 2.27687L6.98275 5.93164L3.02404 6.24778C0.627119 6.43919 -0.34273 9.43233 1.48641 10.9931L4.49492 13.5602L3.57544 17.3999C3.0164 19.7344 5.55383 21.583 7.60461 20.3353L11.0003 18.2693L14.396 20.3353C16.4468 21.5831 18.9842 19.7344 18.4252 17.3999L17.5057 13.5602L20.5142 10.9931C22.3434 9.43232 21.3735 6.43919 18.9766 6.24778L15.0179 5.93164Z" fill="#E8710A"/>
</svg>
