<svg width="24" height="25" viewBox="0 0 24 25" fill="none" xmlns="http://www.w3.org/2000/svg">
<path fill-rule="evenodd" clip-rule="evenodd" d="M9.52275 9.43409C9.42172 9.67607 9.19391 9.84129 8.93252 9.86216L4.18325 10.2414C3.56183 10.2911 3.31039 11.0671 3.78461 11.4717L7.39904 14.5558C7.59925 14.7267 7.68672 14.9954 7.62542 15.2514L6.52045 19.8657C6.37552 20.4709 7.03337 20.9502 7.56505 20.6267L11.6365 18.1495C11.86 18.0136 12.1406 18.0136 12.3642 18.1495L16.4356 20.6267C16.9672 20.9502 17.6251 20.4709 17.4802 19.8657L16.3752 15.2514C16.3139 14.9954 16.4014 14.7267 16.6016 14.5558L20.216 11.4717C20.6902 11.0671 20.4388 10.2911 19.8174 10.2414L15.0681 9.86216C14.8067 9.84129 14.5789 9.67607 14.4779 9.43409L12.6463 5.04747C12.4067 4.47376 11.5939 4.47376 11.3544 5.04748L9.52275 9.43409ZM16.0179 7.93164L14.4918 4.27687C13.5679 2.06395 10.4328 2.06397 9.50877 4.27687L7.98275 7.93164L4.02404 8.24778C1.62712 8.43919 0.65727 11.4323 2.48641 12.9931L5.49492 15.5602L4.57544 19.3999C4.0164 21.7344 6.55383 23.583 8.60461 22.3353L12.0003 20.2693L15.396 22.3353C17.4468 23.5831 19.9842 21.7344 19.4252 19.3999L18.5057 15.5602L21.5142 12.9931C23.3434 11.4323 22.3735 8.43919 19.9766 8.24778L16.0179 7.93164Z" fill="#E8710A"/>
</svg>
