<svg width="17" height="17" viewBox="0 0 17 17" fill="none" xmlns="http://www.w3.org/2000/svg">
<path fill-rule="evenodd" clip-rule="evenodd" d="M13.4818 4.47568H3.97231C3.59717 4.47568 3.29306 4.77979 3.29306 5.15493V13.3059C3.29306 13.681 3.59717 13.9851 3.97231 13.9851H13.4818C13.8569 13.9851 14.161 13.681 14.161 13.3059V5.15493C14.161 4.77979 13.8569 4.47568 13.4818 4.47568ZM3.97231 3.11719C2.8469 3.11719 1.93457 4.02951 1.93457 5.15493V13.3059C1.93457 14.4313 2.8469 15.3436 3.97231 15.3436H13.4818C14.6072 15.3436 15.5195 14.4313 15.5195 13.3059V5.15493C15.5195 4.02951 14.6072 3.11719 13.4818 3.11719H3.97231Z" fill="#D6D6D6"/>
<path fill-rule="evenodd" clip-rule="evenodd" d="M7.36835 8.54688C6.99322 8.54688 6.68911 8.85098 6.68911 9.22612C6.68911 9.60126 6.99322 9.90537 7.36835 9.90537H12.1231C12.4982 9.90537 12.8023 9.60126 12.8023 9.22612C12.8023 8.85098 12.4982 8.54688 12.1231 8.54688H7.36835ZM5.33061 11.2639C4.95548 11.2639 4.65137 11.568 4.65137 11.9431C4.65137 12.3182 4.95548 12.6224 5.33061 12.6224H9.40609C9.78123 12.6224 10.0853 12.3182 10.0853 11.9431C10.0853 11.568 9.78123 11.2639 9.40609 11.2639H5.33061Z" fill="#D6D6D6"/>
<path fill-rule="evenodd" clip-rule="evenodd" d="M5.33061 1.75781C4.95548 1.75781 4.65137 2.06192 4.65137 2.43706V5.15404C4.65137 5.52918 4.95548 5.83329 5.33061 5.83329C5.70575 5.83329 6.00986 5.52918 6.00986 5.15404V2.43706C6.00986 2.06192 5.70575 1.75781 5.33061 1.75781ZM12.1231 1.75781C11.7479 1.75781 11.4438 2.06192 11.4438 2.43706V5.15404C11.4438 5.52918 11.7479 5.83329 12.1231 5.83329C12.4982 5.83329 12.8023 5.52918 12.8023 5.15404V2.43706C12.8023 2.06192 12.4982 1.75781 12.1231 1.75781Z" fill="#D6D6D6"/>
</svg>
