<svg width="23" height="23" viewBox="0 0 23 23" fill="none" xmlns="http://www.w3.org/2000/svg">
<path fill-rule="evenodd" clip-rule="evenodd" d="M15.1788 4.74115H7.58926C7.06531 4.74115 6.64056 5.16589 6.64056 5.68984V9.48464C6.64056 12.1044 8.76429 14.2281 11.3841 14.2281C14.0038 14.2281 16.1275 12.1044 16.1275 9.48464V5.68984C16.1275 5.16589 15.7028 4.74115 15.1788 4.74115ZM7.58926 2.84375C6.0174 2.84375 4.74316 4.11799 4.74316 5.68984V9.48464C4.74316 13.1523 7.71639 16.1255 11.3841 16.1255C15.0517 16.1255 18.0249 13.1523 18.0249 9.48464V5.68984C18.0249 4.11799 16.7507 2.84375 15.1788 2.84375H7.58926Z" fill="#E8710A"/>
<path fill-rule="evenodd" clip-rule="evenodd" d="M0.948242 7.58828C0.948242 6.01643 2.22248 4.74219 3.79434 4.74219H6.64043V12.3318H4.74304C2.64723 12.3318 0.948242 10.6328 0.948242 8.53698V7.58828ZM3.79434 6.63958H4.74304V10.4344C3.69513 10.4344 2.84564 9.58488 2.84564 8.53698V7.58828C2.84564 7.06433 3.27039 6.63958 3.79434 6.63958Z" fill="#E8710A"/>
<path fill-rule="evenodd" clip-rule="evenodd" d="M21.8196 7.58828C21.8196 6.01643 20.5454 4.74219 18.9735 4.74219H16.1274V12.3318H18.0248C20.1206 12.3318 21.8196 10.6328 21.8196 8.53698V7.58828ZM18.9735 6.63958H18.0248V10.4344C19.0727 10.4344 19.9222 9.58488 19.9222 8.53698V7.58828C19.9222 7.06433 19.4975 6.63958 18.9735 6.63958Z" fill="#E8710A"/>
<path d="M11.3846 14.2344C10.8607 14.2344 10.4359 14.6591 10.4359 15.1831V18.0292H8.53854C8.01459 18.0292 7.58984 18.4539 7.58984 18.9779C7.58984 19.5018 8.01459 19.9266 8.53854 19.9266H14.2307C14.7547 19.9266 15.1794 19.5018 15.1794 18.9779C15.1794 18.4539 14.7547 18.0292 14.2307 18.0292H12.3333V15.1831C12.3333 14.6591 11.9086 14.2344 11.3846 14.2344Z" fill="#E8710A"/>
</svg>
